<svg width="80" height="77" viewBox="0 0 80 77" fill="none" xmlns="http://www.w3.org/2000/svg">
<g clip-path="url(#clip0_533_935)">
<path d="M1.21846 76.0732C1.35427 76.0732 1.47121 76.0503 1.56929 76.0046C1.66737 75.9589 1.77111 75.8846 1.87674 75.7836L2.13137 76.0465C1.88428 76.3246 1.58249 76.4618 1.22978 76.4618C0.875181 76.4618 0.582826 76.3475 0.348941 76.117C0.116942 75.8865 0 75.595 0 75.2445C0 74.8921 0.118829 74.6007 0.356486 74.3664C0.594143 74.1321 0.894043 74.014 1.25619 74.014C1.61833 74.014 1.922 74.1492 2.16532 74.4197L1.91446 74.6978C1.80318 74.5892 1.69755 74.515 1.59758 74.4711C1.49762 74.4292 1.38256 74.4064 1.24864 74.4064C1.01287 74.4064 0.812938 74.4845 0.652614 74.6388C0.49229 74.7931 0.411184 74.9912 0.411184 75.2312C0.411184 75.4712 0.490403 75.6712 0.650728 75.8332C0.811052 75.9913 0.999668 76.0732 1.21846 76.0732Z" fill="#173254"/>
<path d="M5.02463 76.1074C4.78886 76.3398 4.4965 76.4579 4.14756 76.4579C3.79862 76.4579 3.50626 76.3417 3.27049 76.1074C3.03472 75.875 2.91589 75.5836 2.91589 75.235C2.91589 74.8864 3.03472 74.5968 3.27049 74.3625C3.50626 74.1301 3.79862 74.012 4.14756 74.012C4.4965 74.012 4.78886 74.1282 5.02463 74.3625C5.2604 74.5949 5.37923 74.8864 5.37923 75.235C5.37923 75.5836 5.26229 75.875 5.02463 76.1074ZM4.73604 74.6292C4.57572 74.4616 4.38145 74.3797 4.14756 74.3797C3.91556 74.3797 3.7194 74.4635 3.56096 74.6292C3.40064 74.7968 3.32142 74.9988 3.32142 75.2369C3.32142 75.475 3.40064 75.6769 3.56096 75.8445C3.72129 76.0122 3.91556 76.0941 4.14756 76.0941C4.37956 76.0941 4.57572 76.0103 4.73604 75.8445C4.89637 75.6769 4.97559 75.475 4.97559 75.2369C4.97559 74.9969 4.89448 74.7949 4.73604 74.6292Z" fill="#173254"/>
<path d="M8.13499 74.0711H8.5292V76.4351H8.10104L6.77507 74.7111V76.4351H6.38086V74.0711H6.77507L8.13499 75.8369V74.0711Z" fill="#173254"/>
<path d="M11.4358 74.0711H11.83V76.4351H11.4018L10.0758 74.7111V76.4351H9.68164V74.0711H10.0758L11.4358 75.8369V74.0711Z" fill="#173254"/>
<path d="M14.6272 74.0711V74.4464H13.3785V75.0712H14.5008V75.4255H13.3785V76.058H14.6668V76.4332H12.9824V74.0692H14.6272V74.0711Z" fill="#173254"/>
<path d="M16.7436 76.0732C16.8794 76.0732 16.9964 76.0504 17.0944 76.0046C17.1925 75.9589 17.2963 75.8846 17.4019 75.7837L17.6565 76.0465C17.4094 76.3247 17.1076 76.4618 16.7549 76.4618C16.4003 76.4618 16.108 76.3475 15.8741 76.117C15.6402 75.8865 15.5251 75.597 15.5251 75.2446C15.5251 74.8922 15.644 74.6007 15.8816 74.3664C16.1193 74.1321 16.4192 74.014 16.7813 74.014C17.1435 74.014 17.4472 74.1492 17.6905 74.4197L17.4396 74.6979C17.3283 74.5893 17.2227 74.515 17.1227 74.4712C17.0228 74.4293 16.9077 74.4064 16.7738 74.4064C16.538 74.4064 16.3381 74.4845 16.1778 74.6388C16.0174 74.7931 15.9363 74.9912 15.9363 75.2312C15.9363 75.4713 16.0156 75.6713 16.1759 75.8332C16.3343 75.9913 16.5248 76.0732 16.7436 76.0732Z" fill="#173254"/>
<path d="M19.5256 74.435V76.4332H19.1314V74.435H18.4222V74.0692H20.2367V74.435H19.5256Z" fill="#173254"/>
<path d="M21.1648 74.0711H21.559V76.4351H21.1648V74.0711Z" fill="#173254"/>
<path d="M24.4656 74.0711H24.8598V76.4351H24.4316L23.1056 74.7111V76.4351H22.7114V74.0711H23.1056L24.4656 75.8369V74.0711Z" fill="#173254"/>
<path d="M27.6341 75.2845H28.0284V76.0922C27.8077 76.3379 27.4908 76.4598 27.0815 76.4598C26.7363 76.4598 26.4459 76.3455 26.212 76.115C25.9781 75.8846 25.863 75.595 25.863 75.2426C25.863 74.8902 25.9819 74.5987 26.2195 74.3644C26.4572 74.1301 26.7439 74.012 27.0815 74.012C27.4191 74.012 27.6983 74.1111 27.9227 74.3092L27.7115 74.614C27.6191 74.5359 27.5285 74.4806 27.4361 74.4501C27.3437 74.4197 27.2362 74.4044 27.1136 74.4044C26.8778 74.4044 26.6779 74.4825 26.5175 74.6368C26.3572 74.7911 26.2761 74.995 26.2761 75.2464C26.2761 75.4979 26.3534 75.6998 26.51 75.8522C26.6665 76.0046 26.8552 76.0808 27.0777 76.0808C27.3003 76.0808 27.4851 76.0331 27.636 75.936V75.2845H27.6341Z" fill="#173254"/>
<path d="M31.5367 76.0732C31.6725 76.0732 31.7894 76.0504 31.8875 76.0046C31.9856 75.9589 32.0893 75.8846 32.195 75.7837L32.4496 76.0465C32.2025 76.3247 31.9007 76.4618 31.548 76.4618C31.1934 76.4618 30.9011 76.3475 30.6672 76.117C30.4333 75.8865 30.3182 75.597 30.3182 75.2446C30.3182 74.8922 30.4371 74.6007 30.6747 74.3664C30.9124 74.1321 31.2123 74.014 31.5744 74.014C31.9366 74.014 32.2402 74.1492 32.4836 74.4197L32.2327 74.6979C32.1214 74.5893 32.0158 74.515 31.9158 74.4712C31.8159 74.4293 31.7008 74.4064 31.5669 74.4064C31.3311 74.4064 31.1312 74.4845 30.9708 74.6388C30.8105 74.7931 30.7294 74.9912 30.7294 75.2312C30.7294 75.4713 30.8086 75.6713 30.969 75.8332C31.1293 75.9913 31.3179 76.0732 31.5367 76.0732Z" fill="#173254"/>
<path d="M35.343 76.1074C35.1072 76.3398 34.8149 76.4579 34.4659 76.4579C34.117 76.4579 33.8246 76.3417 33.5889 76.1074C33.3531 75.875 33.2343 75.5836 33.2343 75.235C33.2343 74.8864 33.3531 74.5968 33.5889 74.3625C33.8246 74.1301 34.117 74.012 34.4659 74.012C34.8149 74.012 35.1072 74.1282 35.343 74.3625C35.5788 74.5949 35.6976 74.8864 35.6976 75.235C35.6976 75.5836 35.5806 75.875 35.343 76.1074ZM35.0544 74.6292C34.8941 74.4616 34.6998 74.3797 34.4659 74.3797C34.232 74.3797 34.0378 74.4635 33.8793 74.6292C33.719 74.7968 33.6398 74.9988 33.6398 75.2369C33.6398 75.475 33.719 75.6769 33.8793 75.8445C34.0396 76.0122 34.2339 76.0941 34.4659 76.0941C34.6979 76.0941 34.8941 76.0103 35.0544 75.8445C35.2147 75.6769 35.2939 75.475 35.2939 75.2369C35.2939 74.9969 35.2128 74.7949 35.0544 74.6292Z" fill="#173254"/>
<path d="M37.0953 76.4351H36.701V74.0711H37.3178L38.0251 75.555L38.7325 74.0711H39.3455V76.4351H38.9512V74.5892L38.1345 76.2293H37.9139L37.1009 74.5892V76.4351H37.0953Z" fill="#173254"/>
<path d="M40.8882 76.4351H40.494V74.0711H41.1108L41.8181 75.555L42.5254 74.0711H43.1384V76.4351H42.7442V74.5892L41.9275 76.2293H41.7068L40.8939 74.5892V76.4351H40.8882Z" fill="#173254"/>
<path d="M44.8116 75.8922C44.9191 76.018 45.0644 76.0808 45.2473 76.0808C45.4303 76.0808 45.5755 76.018 45.683 75.8922C45.7905 75.7665 45.8433 75.5951 45.8433 75.3779V74.0692H46.2376V75.3951C46.2376 75.736 46.1451 75.997 45.9603 76.1818C45.7754 76.3647 45.5378 76.458 45.2473 76.458C44.9568 76.458 44.7192 76.3666 44.5343 76.1818C44.3495 75.9989 44.2571 75.736 44.2571 75.3951V74.0692H44.6513V75.3779C44.6513 75.5951 44.7041 75.7665 44.8116 75.8922Z" fill="#173254"/>
<path d="M49.114 74.0711H49.5082V76.4351H49.08L47.7541 74.7111V76.4351H47.3599V74.0711H47.7541L49.114 75.8369V74.0711Z" fill="#173254"/>
<path d="M50.6606 74.0711H51.0549V76.4351H50.6606V74.0711Z" fill="#173254"/>
<path d="M53.09 74.435V76.4332H52.6958V74.435H51.9866V74.0692H53.8011V74.435H53.09Z" fill="#173254"/>
<path d="M54.7307 74.0711H55.1249V76.4351H54.7307V74.0711Z" fill="#173254"/>
<path d="M57.9224 74.0711V74.4464H56.6738V75.0712H57.7961V75.4255H56.6738V76.058H57.9621V76.4332H56.2777V74.0692H57.9224V74.0711Z" fill="#173254"/>
<path d="M59.6782 74.3816C59.5632 74.3816 59.4688 74.4045 59.3953 74.4521C59.3217 74.4997 59.284 74.5702 59.284 74.6674C59.284 74.7626 59.3217 74.8369 59.3953 74.8864C59.4688 74.9379 59.6254 74.9912 59.8649 75.0503C60.1045 75.1093 60.2856 75.1912 60.4082 75.2979C60.5289 75.4046 60.5911 75.5608 60.5911 75.7665C60.5911 75.9723 60.5138 76.1399 60.361 76.2694C60.2063 76.3971 60.0045 76.4618 59.7555 76.4618C59.3896 76.4618 59.0652 76.3342 58.7804 76.0789L59.0275 75.7779C59.2633 75.9856 59.5103 76.0885 59.7631 76.0885C59.8895 76.0885 59.9913 76.0618 60.0668 76.0065C60.1422 75.9513 60.178 75.8789 60.178 75.7875C60.178 75.696 60.1422 75.6256 60.0724 75.5741C60.0026 75.5227 59.8819 75.477 59.7084 75.4351C59.5367 75.3932 59.4066 75.3551 59.3161 75.3208C59.2274 75.2865 59.1482 75.2408 59.0784 75.1836C58.9407 75.0769 58.8709 74.915 58.8709 74.696C58.8709 74.4769 58.9501 74.3093 59.1067 74.1911C59.2633 74.073 59.4594 74.014 59.6914 74.014C59.8404 74.014 59.9894 74.0388 60.1365 74.0883C60.2837 74.1378 60.4119 74.2083 60.5176 74.2978L60.3063 74.5988C60.2365 74.5359 60.1441 74.4845 60.0253 74.4426C59.9083 74.4026 59.7933 74.3816 59.6782 74.3816Z" fill="#173254"/>
<path d="M0 55H6.24415C11.4227 55 15 58.3216 15 63.4768C15 68.5857 11.5335 72 6.24415 72H0V55ZM6.246 68.1688C9.09013 68.1688 10.6692 66.6132 10.6692 63.5232C10.6692 60.3887 9.09197 58.8312 6.246 58.8312H4.2902V68.1669H6.246V68.1688Z" fill="#173254"/>
<path d="M17 65.489C17 61.9364 19.9494 59 24.0113 59C28.028 59 31 61.9345 31 65.489C31 69.0636 28.028 72 24.0113 72C19.9512 72 17 69.0636 17 65.489ZM21.2449 65.489C21.2449 67.0773 22.267 68.3355 24.0132 68.3355C25.7387 68.3355 26.7815 67.0773 26.7815 65.489C26.7815 63.8787 25.7368 62.6645 24.0132 62.6645C22.2651 62.6627 21.2449 63.8768 21.2449 65.489Z" fill="#173254"/>
<path d="M46 64.5327V72H41.8526V65.0729C41.8526 63.6112 40.9168 62.757 39.5788 62.757C38.1963 62.757 37.1474 63.6785 37.1474 65.0729V72H33V59.2467H37.1474V61.0019C38.1741 59.9907 39.601 59 41.406 59C44.1042 59 46 61.0243 46 64.5327Z" fill="#173254"/>
<path d="M51.0395 57.7736C49.9133 57.7736 49 56.697 49 55.3743C49 54.1016 49.9326 53 51.0395 53C52.1077 53 53 54.0535 53 55.3743C53.0016 56.695 52.1271 57.7736 51.0395 57.7736ZM49.2146 58.8828H52.8257V72H49.2146V58.8828Z" fill="#F36E2A"/>
<path d="M60.8213 72H56.4553V63.0115H55V59.1944H56.5021V58.2526C56.5021 56.0002 57.7468 54 60.9384 54C63.4042 54 65 55.3793 65 55.3793L63.3106 57.8629C63.3106 57.8629 62.8638 57.3566 62.1362 57.3566C61.3383 57.3566 60.8213 57.7941 60.8213 58.6901V59.1963H63.732V63.0134H60.8213V72Z" fill="#F36E2A"/>
<path d="M80 59.0019L74.0355 72.9467C72.8885 75.6261 71.4382 77 68.4676 77C66.7606 77 65.6369 76.6803 64 75.9001L65.3803 72.5338C66.1288 72.901 66.9239 73.2664 68.0476 73.2664C69.0761 73.2664 69.6612 72.785 70.0598 71.824L70.0831 71.7555L64.2819 59H69.1947L72.1886 66.5794L75.2758 59H80V59.0019Z" fill="#F36E2A"/>
<path d="M35.9711 21.4794H31.1859V34.7068H35.9711V21.4794Z" fill="#173254"/>
<path d="M38.154 16.2932H31.1859V20.4441H38.1521C41.3252 20.4441 43.0866 22.1294 43.0866 25.5249C43.0866 28.8706 41.3252 30.5559 38.1521 30.5559H35.9692V34.7068H38.1521C44.0542 34.7068 47.9209 31.0084 47.9209 25.4751C47.9228 19.89 43.9314 16.2932 38.154 16.2932Z" fill="#173254"/>
<path d="M23.7794 29.697C23.7794 29.697 18.3176 32.6132 18.911 31.5356C20.2831 29.047 23.6433 25.0168 20.4362 18.3121C19.9713 17.3438 23.1954 18.8911 25.0948 20.5917C25.0948 20.5917 25.2214 17.0121 18.2666 13.3003C17.3235 12.796 15.6094 13.908 16.8133 15.6969C18.1078 17.618 19.8239 22.139 19.1076 24.7062C18.4953 26.9054 16.4372 29.8964 14.638 32.64C13.9633 33.6677 15.1275 35.1363 16.7774 34.6608C16.7774 34.6608 21.5777 33.5929 23.7794 29.697Z" fill="#F36E2A"/>
<path d="M15.8344 20.4633C17.6959 21.5523 18.3309 23.9662 17.2575 25.8528C16.184 27.7394 13.8046 28.3855 11.945 27.2984C10.0834 26.2075 9.44843 23.7936 10.5219 21.907C11.5972 20.0185 13.9747 19.3723 15.8344 20.4633Z" fill="#F36E2A"/>
<path d="M34.2229 39.6535C34.2229 39.6535 33.981 45.9096 33.3574 44.8493C31.9191 42.399 30.1578 37.4332 22.8325 36.8983C21.7723 36.8216 24.7073 34.7644 27.1075 33.9457C27.1075 33.9457 24.1158 32.0457 17.469 36.2982C16.5675 36.8753 16.6582 38.9383 18.7882 38.7715C21.0749 38.5951 25.794 39.3467 27.6272 41.2602C29.1977 42.8975 30.7228 46.201 32.1648 49.1537C32.7035 50.2599 34.5385 49.9704 34.9581 48.2832C34.96 48.287 36.4473 43.536 34.2229 39.6535Z" fill="#173254"/>
<path d="M22.3675 42.0156C24.2271 40.9265 26.6065 41.5727 27.68 43.4593C28.7553 45.3459 28.1165 47.7598 26.2569 48.8507C24.3953 49.9397 22.0179 49.2917 20.9425 47.4051C19.869 45.5185 20.5078 43.1065 22.3675 42.0156Z" fill="#173254"/>
<path d="M47.9456 35.4565C47.9456 35.4565 53.1655 38.7983 51.9484 38.8137C49.1381 38.852 44.0184 37.9164 39.8984 44.0843C39.3031 44.9778 39.014 41.3714 39.5148 38.852C39.5148 38.852 36.3946 40.5316 36.7045 48.496C36.7461 49.5755 38.5528 50.5283 39.477 48.5746C40.4692 46.4771 43.4722 42.7077 46.0198 42.0539C48.2026 41.4921 51.7859 41.8047 55.027 42.0136C56.2404 42.0923 56.9132 40.3341 55.6809 39.1243C55.6828 39.1262 52.3717 35.4431 47.9456 35.4565Z" fill="#F36E2A"/>
<path d="M44.0334 47.0542C44.0334 44.8742 45.7759 43.1084 47.9228 43.1084C50.0698 43.1084 51.8123 44.8742 51.8123 47.0542C51.8123 49.2323 50.0698 51 47.9228 51C45.774 51 44.0334 49.2323 44.0334 47.0542Z" fill="#F36E2A"/>
<path d="M51.2224 21.3011C51.2224 21.3011 56.6842 18.3849 56.0907 19.4624C54.7187 21.9511 51.3585 25.9812 54.5656 32.6841C55.0305 33.6542 51.8064 32.1051 49.907 30.4064C49.907 30.4064 49.7804 33.9859 56.7352 37.6978C57.6783 38.2021 59.3924 37.09 58.1866 35.3012C56.8921 33.3801 55.176 28.8591 55.8923 26.2918C56.5046 24.0927 58.5627 21.0998 60.3619 18.3581C61.0347 17.3304 59.8705 15.8618 58.2226 16.3373C58.2226 16.3392 53.4241 17.4071 51.2224 21.3011Z" fill="#173254"/>
<path d="M59.1656 30.5367C57.306 29.4477 56.6691 27.0338 57.7425 25.1472C58.816 23.2606 61.1954 22.6126 63.055 23.7016C64.9166 24.7925 65.5516 27.2064 64.4781 29.0911C63.4047 30.9796 61.0272 31.6258 59.1656 30.5367Z" fill="#173254"/>
<path d="M40.7771 11.3446C40.7771 11.3446 41.019 5.0885 41.6426 6.14876C43.0808 8.59714 44.8422 13.5649 52.1674 14.0998C53.2277 14.1765 50.2927 16.2337 47.8925 17.0524C47.8925 17.0524 50.8842 18.9524 57.531 14.6999C58.4324 14.1228 58.3417 12.0598 56.2118 12.2247C53.925 12.403 49.2079 11.6495 47.3728 9.73602C45.8023 8.09865 44.2771 4.79515 42.8351 1.8406C42.2965 0.73624 40.4595 1.02383 40.0419 2.71105C40.0419 2.71297 38.5526 7.46211 40.7771 11.3446Z" fill="#F36E2A"/>
<path d="M52.6344 8.98252C50.7747 10.0735 48.3934 9.42541 47.3219 7.5388C46.2465 5.65218 46.8853 3.23831 48.745 2.14737C50.6065 1.05835 52.984 1.70639 54.0575 3.59301C55.1309 5.48154 54.494 7.8935 52.6344 8.98252Z" fill="#F36E2A"/>
<path d="M27.0563 15.5435C27.0563 15.5435 21.8345 12.2017 23.0516 12.1863C25.8619 12.1461 30.9816 13.0836 35.1016 6.91568C35.6969 6.02222 35.9861 9.62865 35.4852 12.148C35.4852 12.148 38.6036 10.4703 38.2955 2.50399C38.2539 1.42263 36.4472 0.473571 35.523 2.42538C34.5308 4.5229 31.5297 8.29229 28.9802 8.94609C26.7974 9.50594 23.2142 9.19534 19.973 8.98444C18.7597 8.90583 18.0869 10.664 19.3191 11.8738C19.3191 11.8738 22.6302 15.5569 27.0563 15.5435Z" fill="#173254"/>
<path d="M30.9667 3.94579C30.9686 6.12575 29.2242 7.89158 27.0773 7.89158C24.9285 7.89158 23.1879 6.12575 23.1879 3.94579C23.1879 1.76583 24.9303 0 27.0773 0C29.2261 0 30.9667 1.76583 30.9667 3.94579Z" fill="#173254"/>
</g>
<defs>
<clipPath id="clip0_533_935">
<rect width="80" height="77" fill="white"/>
</clipPath>
</defs>
</svg>
